PathFileType	4	(X/Y/Z)	D:\TRACE\v60_Jaco2_6-2-23\JustArmDRS_Motion3_3-v60.trc
DataRate	CameraRate	NumFrames	NumMarkers	Units	OrigDataRate	OrigDataStartFrame	OrigNumFrames
100.00	100.00	      17	9	mm	100.00	3501	      7000
Frame#	Time	front left toe			Front right toe			aft left toe			aft right toe			Arm			FL body			FR body			AL Body			AR Body			
		X1	Y1	Z1	X2	Y2	Z2	X3	Y3	Z3	X4	Y4	Z4	X5	Y5	Z5	X6	Y6	Z6	X7	Y7	Z7	X8	Y8	Z8	X9	Y9	Z9	

3501	35.000	-141.58067	17.19607	-236.46852	257.81549	15.38370	-170.98424	-229.99733	22.48080	401.71585	179.56691	19.23297	416.91080	79.15789	1093.23743	-647.39960	0.52129	582.41602	-346.68021	157.64200	582.14063	-326.12985	-116.06466	585.59607	590.44446	36.77297	575.59894	609.67346	
3502	35.010	-141.73708	17.47700	-236.37291	257.55875	15.54309	-170.99171	-230.29272	22.35305	401.82428	179.43605	18.75647	416.85440	79.31094	1093.95227	-647.06989	0.55003	582.76837	-346.48602	157.08148	582.41010	-325.84512	-116.11703	585.34674	590.64935	36.98357	575.08636	609.93646	
3503	35.020	-141.89195	17.72930	-236.23380	257.46500	15.83546	-170.88564	-230.05409	21.92144	401.86502	179.22643	18.15231	416.90500	79.13029	1095.05933	-646.60596	0.50966	583.06366	-346.23511	157.09599	582.61536	-325.65106	-116.14690	584.72705	590.94519	37.21026	574.78864	610.11615	
3504	35.030	-142.06129	18.02194	-236.06216	257.37759	16.20686	-170.58334	-230.37119	21.65804	401.93912	179.08063	17.75287	417.03247	79.19076	1095.76257	-646.07684	0.38328	583.42822	-346.04239	157.27609	582.77515	-325.15524	-115.82623	584.30383	591.20239	37.12606	574.19458	610.43268	
3505	35.040	-142.24515	18.18891	-235.92685	257.37735	16.46253	-170.20905	-230.59712	21.33946	402.09427	179.07732	17.62080	417.19925	79.21218	1096.42554	-645.69586	0.06247	583.98779	-346.27310	157.10904	582.91156	-324.95844	-115.86726	584.00250	591.33850	37.14504	573.72473	610.67841	
3506	35.050	-142.25978	18.24607	-235.77841	257.14841	16.64436	-169.98990	-230.89836	20.82537	402.48584	178.79712	17.38211	417.36209	79.27691	1097.17810	-644.97736	-0.12602	584.30640	-345.91797	156.93796	583.20337	-324.71707	-115.98112	583.69873	591.62653	37.10755	573.36688	610.90479	
3507	35.060	-142.42781	18.46513	-235.54977	256.79846	16.67136	-170.00159	-231.37766	20.66525	402.30585	178.16447	16.94554	417.49881	79.13247	1097.57263	-644.38391	-0.34117	584.68262	-345.57022	156.73659	583.51550	-324.46619	-115.89294	583.33313	591.78986	33.70332	573.84210	611.48169	
3508	35.070	-142.63647	18.67361	-235.37785	256.42526	16.89504	-169.91278	-231.53632	20.15066	402.86371	177.65048	16.45000	417.58365	78.68723	1098.24207	-644.02246	-0.54518	584.85187	-345.25003	156.37007	583.79858	-324.28015	-116.30846	583.06567	592.27563	33.70325	573.45691	611.86884	
3509	35.080	-142.99637	18.97387	-235.27834	256.17490	17.18323	-169.88109	-231.88222	19.79696	403.05206	177.39566	16.01374	417.59518	78.86045	1098.76526	-643.59296	-0.61072	585.07898	-344.88675	156.23129	583.97626	-324.04456	-116.33730	582.77942	592.75653	33.53776	573.03094	612.05994	
3510	35.090	-143.29347	19.22878	-235.11963	255.67375	17.29782	-169.83925	-232.04041	19.47423	403.19620	177.34453	15.76327	417.81467	78.87511	1099.23096	-642.83917	-0.76575	585.42700	-344.57550	156.75267	584.06763	-323.76410	-116.54048	582.39087	593.15283	33.47471	572.54297	612.21326	
3511	35.100	-143.54930	19.46966	-234.88988	255.39362	17.45674	-169.73587	-232.24086	19.19995	403.21115	177.35385	15.54769	418.09348	78.74185	1099.78467	-642.06653	-0.77793	585.56433	-344.34830	156.61298	584.29993	-323.30396	-116.53040	582.15466	593.33313	33.32069	572.15369	612.70581	
3512	35.110	-143.75034	19.68656	-234.71544	255.00398	17.63610	-169.63101	-232.34888	18.81569	403.27026	176.91714	15.20470	418.24231	78.93350	1100.23413	-641.61920	-1.10750	585.85608	-344.07791	156.02911	584.55054	-322.98553	-116.55628	581.65631	593.51379	33.42238	571.91974	612.98633	
3513	35.120	-143.86179	19.80131	-234.60457	254.56009	17.65755	-169.47197	-232.89673	18.37886	403.39160	176.97252	14.93913	418.55527	78.84379	1100.78369	-641.12708	-1.02867	585.91467	-343.49585	155.88132	584.66437	-322.70428	-116.68324	581.19287	593.71295	33.18681	571.46466	613.34979	
3514	35.130	-144.15953	20.06856	-234.39104	254.51466	17.82481	-169.09242	-233.25217	18.13625	403.41562	176.73419	14.63952	418.75699	78.47295	1101.10742	-640.35974	-1.21607	586.13074	-343.31641	155.74384	584.82745	-322.47565	-116.86554	580.92261	594.01929	33.14920	570.99353	613.62848	
3515	35.140	-144.60263	20.30863	-234.24249	254.45680	18.05766	-168.83788	-233.56064	17.86757	403.49683	176.22145	14.08044	418.75314	78.61747	1101.48022	-639.71826	-1.43960	586.40546	-342.90540	155.43050	585.03400	-322.13254	-116.97071	580.60834	594.51526	32.96598	570.51727	613.79346	
3516	35.150	-144.94582	20.52997	-234.10403	254.17198	18.56555	-168.67953	-233.62798	17.56010	403.47693	175.51485	13.42510	418.74295	78.79852	1101.93726	-639.22522	-1.46583	586.55267	-342.33716	155.24828	585.22717	-321.89801	-116.98034	580.16290	594.94568	32.71460	570.19531	614.05615	
3517	35.160	-145.17400	20.82162	-233.89735	253.72099	18.68368	-168.70480	-233.95517	17.06897	403.77051	175.17792	13.02919	418.78723	78.55908	1102.44629	-638.36047	-1.96494	586.90692	-342.55496	155.06775	585.60095	-321.57721	-117.23414	579.66968	595.14124	32.77681	569.64331	614.36688	
